<svg width="438" height="109" viewBox="0 0 438 109" fill="none" xmlns="http://www.w3.org/2000/svg">
<path d="M30.66 108.8C12.98 108.8 0.690002 96.5 0.690002 80.75C0.690002 65 12.99 52.7 30.66 52.7C48.33 52.7 60.63 65 60.63 80.75C60.63 96.5 48.33 108.8 30.66 108.8ZM30.66 71.53C26.05 71.53 22.21 75.37 22.21 80.75C22.21 86.13 26.05 89.97 30.66 89.97C35.27 89.97 39.11 86.13 39.11 80.75C39.11 75.37 35.27 71.53 30.66 71.53Z" fill="#191C1D"/>
<path d="M141.32 92.28H164.38V107.65H121.34V53.85H162.84V69.22H141.32V73.06H161.3V88.43H141.32V92.27V92.28Z" fill="#191C1D"/>
<path d="M201.26 107.65L192.04 89.97H191.27V107.65H171.29V53.85C171.29 53.85 182.05 53.08 193.58 53.08C210.49 53.08 218.17 60.77 218.17 71.91C218.17 83.05 211.25 86.9 211.25 86.9L224.32 107.65H201.26ZM193.57 76.14C196.26 76.14 198.18 74.22 198.18 71.91C198.18 69.6 196.26 67.68 193.57 67.68H191.27V76.13H193.57V76.14Z" fill="#191C1D"/>
<path d="M275.03 71.91C275.03 83.05 267.34 90.74 254.28 90.74C251.21 90.74 247.36 90.35 247.36 90.35V107.64H227.38V53.84C227.38 53.84 238.14 53.07 250.44 53.07C267.35 53.07 275.03 60.76 275.03 71.9V71.91ZM250.44 76.14C253.13 76.14 255.05 74.22 255.05 71.91C255.05 69.6 253.13 67.68 250.44 67.68H247.37V76.13H250.44V76.14Z" fill="#191C1D"/>
<path d="M328.05 107.65H305.76L304.22 99.97H294.23L292.69 107.65H270.4L286.16 53.85H312.29C312.37 54.16 328.05 107.65 328.05 107.65ZM301.92 87.67L299.23 73.84L296.54 87.67H301.92Z" fill="#191C1D"/>
<path d="M355.71 52.7C370.31 52.7 377.23 61.15 377.23 61.15L368.01 75.75C368.01 75.75 363.4 71.52 358.02 71.52C352.64 71.52 348.8 75.36 348.8 80.74C348.8 86.12 352.64 89.96 358.02 89.96C363.4 89.96 368.01 85.73 368.01 85.73L377.23 100.33C377.23 100.33 370.31 108.78 355.71 108.78C339.57 108.78 327.28 96.48 327.28 80.73C327.28 64.98 339.58 52.68 355.71 52.68V52.7Z" fill="#191C1D"/>
<path d="M421.03 80.75L437.17 107.65H414.11L403.35 86.13V107.65H383.37V53.85H403.35V75.37L412.57 53.85H435.63L421.03 80.75Z" fill="#191C1D"/>
<path d="M99.9201 0.399999L90.49 1.46001C90.39 1.47001 90.3 1.53 90.25 1.62L82.9 14.85C82.77 15.08 82.96 15.35 83.22 15.32L92.65 14.26C92.75 14.25 92.8401 14.19 92.8901 14.1L100.24 0.870001C100.37 0.640001 100.18 0.369999 99.9201 0.399999Z" fill="#F04D52"/>
<path d="M101.17 22.95L91.82 24C91.73 24.01 91.64 23.98 91.57 23.92L83.28 16.72C83.07 16.54 83.18 16.19 83.45 16.16L92.8 15.11C92.89 15.1 92.98 15.13 93.05 15.19L101.34 22.39C101.55 22.57 101.44 22.92 101.17 22.95Z" fill="#F03341"/>
<path d="M104.04 23.78L93.86 14.78C93.75 14.68 93.72 14.52 93.79 14.38L101.13 1.11C101.23 0.930004 101.47 0.890008 101.62 1.02001L111.8 10.02C111.91 10.12 111.94 10.28 111.87 10.42L104.53 23.69C104.43 23.87 104.19 23.91 104.04 23.78Z" fill="#D63341"/>
<path d="M75.67 3.06L66.2 4.13001C66.09 4.14001 65.99 4.21001 65.94 4.32001L59.69 18.4C59.59 18.63 59.77 18.88 60.02 18.85L69.49 17.78C69.6 17.77 69.7 17.7 69.75 17.59L76 3.51C76.1 3.28 75.92 3.03 75.67 3.06Z" fill="#F04D52"/>
<path d="M78.56 26.05L69.25 27.1C69.17 27.1 69.08 27.09 69.02 27.03L60.4 20.24C60.17 20.06 60.28 19.7 60.56 19.67L69.87 18.62C69.95 18.62 70.04 18.63 70.1 18.69L78.72 25.48C78.95 25.66 78.84 26.02 78.56 26.05Z" fill="#F03341"/>
<path d="M79.47 25.07L70.75 18.12C70.63 18.03 70.6 17.87 70.66 17.74L76.97 3.86999C77.06 3.67999 77.3 3.62 77.46 3.75L86.18 10.7C86.3 10.79 86.33 10.95 86.27 11.08L79.96 24.95C79.87 25.14 79.63 25.2 79.47 25.07Z" fill="#D63341"/>
<path d="M115.02 51.6C115.6 51.6 116.07 51.13 116.07 50.55V48.55C116.07 48.49 116.09 48.43 116.09 48.37C116.09 44.35 103.37 41.08 87.69 41.08C72.01 41.08 59.29 44.34 59.29 48.37V50.56C59.29 51.14 59.76 51.61 60.34 51.61H115.03L115.02 51.6Z" fill="#191C1D"/>
<path d="M114.53 35.08L114.07 33.2L115.1 33.11L109.77 19.53C101.94 18.67 87.17 19.75 85.81 19.86C85.81 19.86 85.79 19.86 85.75 19.86C85.71 19.86 85.69 19.86 85.69 19.86C84.33 20 69.59 21.5 62.04 23.71L59.15 38.01L60.18 37.92L60.05 39.85L58.44 39.99L58.62 42.04L87.42 39.51H87.53L116.33 36.97L116.15 34.92L114.54 35.06L114.53 35.08ZM109.99 35.47C92.25 36.34 63.38 39.45 63.09 39.49L62.76 37.15C63.05 37.11 92.03 33.93 109.98 33.11V35.47H109.99Z" fill="#191C1D"/>
<path d="M104.5 33.41C106.43 33.28 108.04 33.15 109.99 33.11L104.55 19.22C102.69 19.15 100.98 19.2 99.11 19.22L104.49 33.4L104.5 33.41Z" fill="#3C3C3C"/>
<path d="M82.06 53.87L87.83 85.42L93.6 53.87H115.91L100.91 107.73H74.75L59.75 53.87H82.06Z" fill="#F03341"/>
<path d="M77.82 53.86L87.83 85.41L82.06 53.86H77.82Z" fill="#D63341"/>
<path d="M94.45 107.73H100.91L115.91 53.86H108.86L94.45 107.73Z" fill="#D63341"/>
<path d="M74.75 107.73H81.25L67.18 53.86H59.74L74.75 107.73Z" fill="#F04D52"/>
<path d="M98.38 53.86H93.6L87.83 85.41L98.38 53.86Z" fill="#F04D52"/>
</svg>
