<svg width="68" height="126" viewBox="0 0 68 126" fill="none" xmlns="http://www.w3.org/2000/svg">
<path d="M48.21 0.499998L37.26 1.74C37.14 1.75 37.03 1.82 36.98 1.93L28.44 17.3C28.29 17.56 28.51 17.89 28.81 17.85L39.76 16.61C39.88 16.6 39.99 16.53 40.04 16.42L48.58 1.05C48.73 0.790001 48.51 0.459998 48.21 0.499998Z" fill="#F04D52"/>
<path d="M49.66 26.68L38.81 27.9C38.71 27.91 38.6 27.88 38.52 27.81L28.9 19.45C28.65 19.24 28.78 18.83 29.1 18.8L39.95 17.58C40.05 17.57 40.16 17.6 40.24 17.67L49.86 26.03C50.11 26.24 49.98 26.65 49.66 26.68Z" fill="#F03341"/>
<path d="M52.99 27.65L41.17 17.19C41.04 17.07 41.01 16.88 41.09 16.73L49.61 1.32C49.73 1.11 50 1.06 50.18 1.22L62 11.68C62.13 11.8 62.16 11.99 62.08 12.14L53.56 27.55C53.44 27.76 53.17 27.81 52.99 27.65Z" fill="#D63341"/>
<path d="M20.04 3.59L9.04004 4.83C8.91004 4.84 8.79004 4.93001 8.74004 5.05001L1.48003 21.4C1.36003 21.66 1.58003 21.95 1.86003 21.92L12.86 20.68C12.99 20.67 13.11 20.58 13.16 20.46L20.42 4.11C20.54 3.85 20.32 3.56 20.04 3.59Z" fill="#F04D52"/>
<path d="M23.39 30.29L12.58 31.51C12.48 31.52 12.38 31.49 12.31 31.43L2.29997 23.54C2.03997 23.33 2.15997 22.91 2.48997 22.88L13.3 21.66C13.4 21.65 13.5 21.68 13.57 21.74L23.58 29.63C23.84 29.84 23.72 30.26 23.39 30.29Z" fill="#F03341"/>
<path d="M24.46 29.14L14.3301 21.06C14.2001 20.95 14.1501 20.77 14.2201 20.61L21.5501 4.51C21.6501 4.29 21.93 4.22 22.12 4.37L32.2501 12.45C32.3801 12.56 32.4301 12.74 32.3601 12.9L25.03 29C24.93 29.22 24.65 29.29 24.46 29.14Z" fill="#D63341"/>
<path d="M65.74 59.96C66.41 59.96 66.96 59.41 66.96 58.74V56.41C66.96 56.34 66.98 56.27 66.98 56.2C66.98 51.53 52.21 47.74 33.99 47.74C15.77 47.74 1 51.53 1 56.2V58.74C1 59.41 1.55 59.96 2.22 59.96H65.73H65.74Z" fill="#191C1D"/>
<path d="M65.17 40.77L64.63 38.58L65.82 38.48L59.63 22.71C50.54 21.71 33.39 22.97 31.8 23.09C31.8 23.09 31.78 23.09 31.73 23.09C31.69 23.09 31.66 23.09 31.66 23.09C30.08 23.25 12.97 24.99 4.19001 27.56L0.840012 44.17L2.03001 44.07L1.88001 46.32L0.0100098 46.48L0.220013 48.87L33.66 45.94H33.79L67.23 43L67.02 40.61L65.15 40.77H65.17ZM59.9 41.22C39.3 42.22 5.77001 45.84 5.43001 45.88L5.05001 43.17C5.39001 43.12 39.05 39.44 59.89 38.48V41.22H59.9Z" fill="#191C1D"/>
<path d="M27.46 62.59L34.16 99.23L40.86 62.59H66.78L49.35 125.14H18.97L1.54004 62.59H27.46Z" fill="#F03341"/>
<path d="M22.54 62.59L34.16 99.23L27.46 62.59H22.54Z" fill="#D63341"/>
<path d="M41.86 125.14H49.36L66.78 62.59H58.59L41.86 125.14Z" fill="#D63341"/>
<path d="M18.9701 125.14H26.53L10.18 62.59H1.55005L18.9701 125.14Z" fill="#F04D52"/>
<path d="M46.42 62.59H40.87L34.16 99.23L46.42 62.59Z" fill="#F04D52"/>
</svg>
